<?xml version="1.0" encoding="UTF-8"?>
<svg id="uuid-da08c950-fd4c-42cd-8a0c-f18c29619cc2" data-name="Ebene 2" xmlns="http://www.w3.org/2000/svg" viewBox="0 0 554.304 99.6953">
  <g id="uuid-788fa264-e332-4567-972a-e3d9a98f2f84" data-name="Ebene 1">
    <g>
      <path d="M41.3912,28.2184h-.4375c-3.7347-5.7088-9.5929-8.5632-17.5691-8.5632-4.3911,0-8.3658,1.2271-11.9138,3.676-3.548,2.4543-6.349,6.0022-8.3978,10.6493-2.0487,4.6524-3.0731,10.121-3.0731,16.4167s1.0457,11.7483,3.1318,16.358c2.0861,4.615,4.9565,8.1256,8.6165,10.5425,3.66,2.4169,7.7949,3.6227,12.4046,3.6227,8.2697,0,14.1652-3.1478,17.6758-9.4435h.4375v8.0136h21.7413V0h-22.6163v28.2184ZM39.86,61.2652c-1.686,2.1928-4.0602,3.2918-7.1387,3.2918s-5.4526-1.0938-7.1386-3.2918c-1.6806-2.1928-2.5236-5.7461-2.5236-10.868s.8376-8.7819,2.5236-10.9801c1.686-2.1928,4.0602-3.2918,7.1386-3.2918s5.4527,1.099,7.1387,3.2918c1.6805,2.1982,2.5236,5.9276,2.5236,10.9801s-.8377,8.6752-2.5236,10.868Z" fill="#fff"/>
      <path d="M100.239,19.6499c-10.3927,0-18.4117,2.6943-24.0457,8.0723-5.6394,5.378-8.4565,13.0074-8.4565,22.6697s2.8171,17.1689,8.4565,22.5096c5.6394,5.3406,13.7224,8.0136,24.0457,8.0136s18.322-2.6677,23.993-8.0136c5.6721-5.346,8.51-12.7781,8.51-22.5096s-2.838-17.2917-8.51-22.6697c-5.677-5.3833-13.599-8.0723-23.993-8.0723ZM107.271,61.8147c-1.611,2.1928-3.953,3.2919-7.026,3.2919s-5.4156-1.0991-7.0268-3.2919c-1.6113-2.1928-2.4169-5.9968-2.4169-11.4175s.8056-9.2621,2.4169-11.5296c1.6112-2.2675,3.9534-3.4039,7.0268-3.4039s5.415,1.1364,7.026,3.4039c1.612,2.2729,2.4171,6.1143,2.4171,11.5296s-.8051,9.2194-2.4171,11.4175Z" fill="#fff"/>
      <path d="M189.179,23.2726c-3.66-2.4169-7.795-3.6227-12.405-3.6227-3.804,0-7.213.6776-10.212,2.0327-2.998,1.3552-5.49,3.8255-7.464,7.4108h-.437v-8.0136h-21.741v78.6155h22.616v-27.338h.437c1.9,2.929,4.263,5.0898,7.08,6.477l.006-.0107c2.817,1.3872,6.093,2.0861,10.483,2.0861s8.361-1.2271,11.9139-3.676c3.548-2.4489,6.349-6.0022,8.398-10.6492,2.049-4.6471,3.073-10.1264,3.073-16.4167s-1.04-11.7483-3.126-16.358c-2.092-4.6097-4.962-8.1203-8.622-10.5372ZM175.344,61.2652c-1.686,2.1928-4.0649,3.2919-7.138,3.2919s-5.4529-1.0938-7.139-3.2919c-1.681-2.1982-2.523-5.9329-2.523-10.98s.837-8.6699,2.523-10.868c1.686-2.1928,4.06-3.2919,7.139-3.2919s5.452,1.0991,7.138,3.2919c1.681,2.1928,2.524,5.7407,2.524,10.868s-.838,8.7872-2.524,10.98Z" fill="#fff"/>
      <path d="M264.823,69.1667v-28.6558c0-6.8078-2.471-11.9884-7.411-15.5364-4.941-3.5479-12.095-5.3246-21.464-5.3246-8.051,0-14.709,1.6646-19.981,4.9938-5.266,3.3293-8.563,8.0296-9.881,14.1065l21.192,1.6433c1.387-4.4603,4.172-6.6958,8.344-6.6958,1.9,0,3.474.3842,4.722,1.1525,1.243.7682,1.868,1.8886,1.868,3.3505,0,1.0991-.443,1.9794-1.318,2.6356-.881.6616-2.38,1.2645-4.503,1.8141-2.124.5495-5.309,1.1524-9.55,1.8139-7.763,1.1685-13.547,3.2172-17.351,6.1463-3.804,2.9291-5.709,7.3574-5.709,13.2849,0,3.5106.95,6.5517,2.855,9.1127,1.899,2.5662,4.465,4.5243,7.683,5.8741,3.222,1.3552,6.695,2.0328,10.43,2.0328,3.954,0,7.539-.6936,10.761-2.0861,3.218-1.3872,5.453-3.1799,6.696-5.378.2191,3.1478.731,5.1592,1.537,6.0395h22.616c-.656-.8803-1.083-2.0701-1.264-3.5693-.182-1.5045-.272-3.7507-.272-6.7545ZM242.206,57.3064c0,3.2972-1.008,5.8048-3.02,7.5228-2.016,1.7233-4.156,2.5822-6.423,2.5822-1.761,0-3.185-.5121-4.284-1.5365-1.094-1.0244-1.644-2.3742-1.644-4.0602,0-3.5853,2.417-5.8581,7.246-6.8078,4.1721-.8803,6.882-1.5739,8.125-2.0861v4.3856Z" fill="#fff"/>
      <path d="M362.208,25.1399c-3.442-3.66-8.233-5.49-14.379-5.49-4.908,0-8.841.9123-11.807,2.7423-2.966,1.83-5.805,4.2469-8.51,7.2454-3.073-6.6585-8.819-9.9877-17.238-9.9877-4.61,0-8.344.8963-11.199,2.689-2.854,1.798-5.271,4.0495-7.245,6.7545h-.438v-8.0136h-21.741v58.4107h22.616v-31.2914c0-3.6601.753-6.3864,2.252-8.179,1.499-1.7927,3.457-2.689,5.874-2.689,2.198,0,3.879.7096,5.052,2.1393,1.169,1.4299,1.756,3.7561,1.756,6.9732v33.0468h22.616v-31.2914c0-3.7294.731-6.4771,2.193-8.2324,1.467-1.7553,3.404-2.6356,5.821-2.6356,4.6151,0,6.92,3.0411,6.92,9.1125v33.0468h22.616v-37.9872c0-7.2454-1.718-12.698-5.159-16.358v-.0054Z" fill="#fff"/>
      <rect x="372.201" y="21.0797" width="22.616" height="58.4108" fill="#fff"/>
      <rect x="372.201" width="22.616" height="14.8214" fill="#fff"/>
      <path d="M440.818,19.6499c-8.051,0-14.384,3.1478-18.994,9.4435h-.437v-8.019h-21.742v58.4108h22.617v-31.2915c0-3.66.805-6.3863,2.417-8.179,1.611-1.7926,3.734-2.689,6.37-2.689,2.417,0,4.263.7096,5.543,2.1395,1.2809,1.4297,1.921,3.756,1.921,6.9732v33.0468h22.616v-37.9873c0-7.2453-1.792-12.698-5.378-16.358-3.59-3.66-8.563-5.49-14.933-5.49Z" fill="#fff"/>
      <path d="M497.249,19.6553c-10.324,0-18.3,2.6943-23.939,8.0723-5.64,5.3779-8.457,13.0074-8.457,22.6696s2.817,17.1689,8.457,22.5096c5.639,5.3407,13.615,8.0136,23.939,8.0136,6.44,0,11.93-.987,16.47-2.9664,4.535-1.974,8.014-4.4496,10.431-7.4107,2.417-2.9611,3.916-5.9435,4.503-8.9473l-.011-.0053-23.272-.9871c-.299,1.9047-1.083,3.4413-2.364,4.6097-1.28,1.1685-3.201,1.7554-5.762,1.7554-2.785,0-4.999-1.0778-6.642-3.2386-1.649-2.1554-2.4709-5.2125-2.4709-9.166h41.285c.661-11.4869-1.884-20.1781-7.63-26.0736-5.746-5.8901-14.213-8.8352-24.537-8.8352ZM488.249,42.3836c0-2.8544.821-5.1219,2.47-6.8078,1.643-1.6806,3.895-2.5236,6.53-2.5236s4.775.8376,6.424,2.5236c1.649,1.6859,2.47,3.9534,2.47,6.8078h-17.894Z" fill="#fff"/>
      <polygon points="530 4.8765 533.544 4.8765 533.544 14.3229 536.171 14.3229 536.171 4.8765 539.715 4.8765 539.715 2.6771 530 2.6771 530 4.8765" fill="#fff"/>
      <polygon points="553.576 2.6771 551.678 2.6771 551.156 2.6771 548.023 10.6519 544.905 2.6771 544.383 2.6771 542.484 2.6771 541.741 2.6771 541.741 14.3229 544.383 14.3229 544.383 7.2739 547.295 14.3229 548.75 14.3229 551.678 7.2573 551.678 14.3229 554.304 14.3229 554.304 2.6771 553.576 2.6771" fill="#fff"/>
    </g>
  </g>
</svg>