<?xml version="1.0" encoding="UTF-8"?>
<svg id="uuid-12cf2432-845a-4ce6-90dd-c26e9720d419" data-name="Ebene 2" xmlns="http://www.w3.org/2000/svg" viewBox="0 0 843.2443 838.5442">
  <g id="uuid-0c393136-e2c5-46a1-afdf-332980b22c1f" data-name="Ebene 1">
    <path d="M839.1198,237.9198c-2.7-5.1-5.8-10.1-10.7-13.5-5.6-4-11.6-7.6-18.2-9.8l-21-7.2c-5.4-1.8-10.9-2.6-16.5-3.6-5.9-1-11.6-.1-17.5,1-6.3,1.2-12.4,2.5-18.6,4.4-4.3,1.3-8.4,2.2-12.8,3.2-23.8,5.9-19.2,9.2-33.4,14.7l-14.6,5.5c-6,2.2-11.4,4.8-16.9,8.2-4.8,3-9.4,5.8-13.9,9.3-4.7,3.7-9.8,6.2-15.4,8.4-3.9,1.6-7.2,4.1-11,6l-18.5,9.7c-3.9,2.1-7.8,3.9-12,5.4-4.7,1.7-9.2,3.5-13.7,5.8-3.9,1.9-7.8,3.4-12,4.7l-13.4,3.9c-12.4,3.6-17.7,8.5-27.1,17-3.6,3.3-10.8,5.1-12.6,9.6l-9.8,9.3c-1.5,3.7-5,5.5-7,9-2.2,3.8-3.5,5.2-5.2,9.3-.8,1.8-1.8,3.6-2.9,5.2.9-2,2.1-4.7,4-8.9l9-19.9c2.2-4.9,5.1-9.2,6.3-14.5,2.6-11.1,7.6-16.2,12.8-26.2l6.1-11.7c1.7-3.3,3.3-6.5,4.4-10.1,3.6-11.3,9.1-12.9,12.7-23.8,1.2-3.8,3-7.2,5.1-10.6l8.6-13.7c3.8-6,6.7-12.2,11.2-17.7,6.9-8.3,7.9-14.1,13.7-20.5,4.2-4.6,11.6-14.9,14.5-20.3,5.1-9.7,2.5-11.5,9.1-23.2,1.8-3.2,3.7-6.2,5.4-9.6,3.1-6.4,4.5-13.3,5-20.4.3-4.9.1-9.6.2-14.5,0-11.9-3.2-17.5-4.8-28.9-.5-3.7-1.4-7.2-3-10.6l-6.6-14.6c-1.8-4.1-3.9-7.9-6.4-11.7-2.5-3.8-5.6-6.8-9.6-9.1-5.7-3.3-11.6-5.9-17.8-7.8-7.2-2.3-14-2.3-21.4-1.1l-15.9,2.5c-4.8.8-9.3,2.1-13.6,4.4l-8,4.5c-4.5,2.5-8.5,5.1-12.6,8.3l-11.9,9.3c-11.9,9.3-11.4,15.7-20.6,26.7l-10.2,12.1c-2.6,3.1-5.1,6.1-8.3,8.8-3.8,3.2-6.9,6.8-10,10.8-5.8,7.3-10.9,14.7-19.5,17.6-13.7,4.6-23.8-23-35.4-32.9l-8.4-7.2-8.3-8.1c-4.5-4.4-9.2-8.3-13.5-13-6.4-7-13.3-13.3-21.2-18.7-6-4-11.4-8.4-17.1-12.8-4.4-3.4-9.1-6.1-13.7-9.2-4.2-2.8-8.9-4.5-13.9-5.1-2.2-.3-4.3-.7-6.5-.8-5.6-.2-11-.5-16.7-1.1-6.3-.6-12.2,1.1-17.7,4.1-5.1,2.8-10.1,5.8-13.6,10.7-3.9,5.6-7.5,11.6-9.8,18.2l-7.2,21c-1.8,5.4-2.6,10.9-3.6,16.5-1,5.9,0,11.6,1,17.4,1.2,6.4,2.5,12.4,4.4,18.6,1.3,4.2,2.1,8.4,3.2,12.8,5.9,23.7,9.2,19.2,14.6,33.4l5.6,14.6c2.2,6,4.7,11.5,8.2,16.9,3,4.8,5.8,9.5,9.3,14,3.7,4.7,6.2,9.8,8.4,15.3,1.6,4,4,7.3,6,11.1l9.7,18.5c2,4,3.9,7.8,5.4,12,1.7,4.7,3.5,9.2,5.7,13.7,2,3.9,3.5,7.8,4.7,12l3.9,13.4c3.6,12.4,8.4,17.7,17,27.1,3.3,3.6,5.1,10.7,9.6,12.6l9.3,9.8c2.7,1.1,4.4,3.2,6.5,5.1l-13.6-6.2c-4.9-2.2-9.2-5.1-14.5-6.3-11.1-2.6-16.2-7.6-26.2-12.8l-11.7-6c-3.3-1.7-6.5-3.3-10.1-4.4-11.3-3.6-12.9-9.1-23.8-12.7-3.8-1.2-7.2-3-10.6-5.1l-13.7-8.6c-6-3.7-12.2-6.7-17.7-11.2-8.3-6.9-14.1-7.9-20.5-13.6-4.6-4.2-14.9-11.7-20.3-14.5-9.7-5.1-11.5-2.5-23.2-9.1-3.2-1.8-6.2-3.7-9.6-5.4-6.4-3.1-13.3-4.5-20.4-5-4.9-.3-9.6-.1-14.5-.1-11.9,0-17.5,3.2-28.9,4.8-3.7.5-7.1,1.4-10.6,3l-14.6,6.6c-4.1,1.9-7.9,3.9-11.7,6.4-3.8,2.5-6.8,5.7-9.1,9.6-3.3,5.6-5.9,11.5-7.8,17.8-2.3,7.2-2.3,14.1-1.1,21.4l2.5,15.9c.8,4.9,2.1,9.4,4.4,13.6l4.5,8.1c2.5,4.4,5.1,8.5,8.3,12.6l9.3,11.9c9.3,11.9,15.7,11.4,26.7,20.6l12.1,10.2c3.1,2.6,6.1,5.1,8.8,8.3,3.3,3.8,6.9,6.9,10.8,10,7.3,5.8,14.7,10.9,17.6,19.5,4.6,13.8-23.1,23.9-32.9,35.4l-7.2,8.4-8.1,8.3c-4.4,4.5-8.3,9.2-13,13.5-7,6.5-13.3,13.4-18.7,21.2-4,6-8.4,11.4-12.8,17.2-3.4,4.4-6.1,9-9.2,13.7-2.8,4.2-4.5,8.9-5.1,13.9-.3,2.2-.7,4.2-.8,6.4-.2,5.6-.5,11.1-1.1,16.7-.6,6.3,1.1,12.2,4.1,17.7,2.8,5.1,5.8,10.1,10.7,13.5,5.6,3.9,11.6,7.5,18.2,9.8l21,7.2c5.4,1.8,10.9,2.6,16.5,3.6,5.9,1,11.6.1,17.4-1,6.4-1.2,12.4-2.5,18.6-4.4,4.2-1.3,8.4-2.2,12.8-3.2,23.7-5.9,19.2-9.3,33.4-14.7l14.6-5.5c6-2.3,11.5-4.8,16.9-8.2,4.8-3,9.5-5.8,14-9.3,4.7-3.6,9.8-6.2,15.3-8.4,4-1.6,7.3-4,11-6l18.5-9.6c4-2.1,7.8-3.9,12-5.4,4.7-1.7,9.2-3.5,13.7-5.8,3.9-1.9,7.8-3.4,12-4.7l13.4-4c12.4-3.6,17.7-8.4,27.1-17,3.6-3.2,10.7-5.1,12.6-9.6l9.8-9.2c1.5-3.7,5-5.5,7-9,.5-.8.9-1.6,1.3-2.2l-7.5,16.5c-2.2,4.9-5.1,9.2-6.3,14.5-2.6,11.1-7.6,16.2-12.8,26.2l-6.1,11.7c-1.7,3.3-3.3,6.5-4.4,10.1-3.6,11.3-9.1,12.9-12.7,23.8-1.2,3.8-3,7.2-5.1,10.6l-8.6,13.7c-3.7,6-6.7,12.2-11.2,17.7-6.9,8.4-7.9,14.1-13.7,20.5-4.1,4.6-11.6,14.9-14.5,20.3-5.1,9.7-2.5,11.5-9.1,23.2-1.8,3.2-3.8,6.2-5.4,9.6-3.1,6.4-4.4,13.3-4.9,20.4-.3,4.9-.1,9.6-.1,14.5,0,11.8,3.2,17.5,4.8,28.9.5,3.7,1.4,7.2,3,10.6l6.6,14.6c1.8,4.1,3.9,7.9,6.4,11.6,2.5,3.8,5.6,6.8,9.6,9.1,5.6,3.3,11.5,5.9,17.8,7.9,7.2,2.2,14.1,2.3,21.4,1.1l15.9-2.5c4.8-.8,9.3-2.1,13.6-4.5l8-4.4c4.5-2.5,8.6-5.1,12.6-8.3l11.9-9.3c11.9-9.3,11.4-15.7,20.6-26.7l10.2-12.1c2.6-3.1,5.1-6.2,8.2-8.8,3.8-3.2,6.9-6.8,10-10.8,5.8-7.3,10.9-14.7,19.5-17.6,13.8-4.6,23.9,23,35.4,32.9l8.4,7.2,8.3,8.1c4.5,4.4,9.2,8.3,13.5,13,6.4,7,13.3,13.3,21.2,18.6,6,4.1,11.4,8.4,17.2,12.9,4.4,3.4,9,6.1,13.7,9.2,4.2,2.8,8.9,4.5,13.9,5.1,2.2.3,4.2.7,6.4.8,5.6.2,11.1.5,16.7,1,6.3.6,12.2-1,17.7-4.1,5.1-2.7,10.1-5.8,13.6-10.7,3.9-5.6,7.5-11.6,9.8-18.2l7.2-21c1.8-5.4,2.6-10.9,3.6-16.5,1-5.9,0-11.6-1-17.5-1.2-6.3-2.5-12.4-4.4-18.6-1.3-4.3-2.2-8.4-3.3-12.8-5.9-23.8-9.2-19.2-14.6-33.4l-5.5-14.6c-2.3-6-4.8-11.4-8.2-16.9-3-4.8-5.8-9.4-9.3-13.9-3.6-4.7-6.2-9.8-8.4-15.4-1.6-3.9-4-7.2-6-11l-9.6-18.5c-2.1-3.9-3.9-7.8-5.4-12-1.7-4.7-3.5-9.2-5.8-13.7-1.9-3.9-3.5-7.8-4.7-12l-3.9-13.4c-3.6-12.4-8.4-17.7-17-27.1-3.2-3.6-5.1-10.8-9.6-12.6l-9.3-9.8c-3.4-1.4-5.3-4.5-8.4-6.5l16.8,7.6c4.9,2.2,9.2,5.1,14.5,6.3,11.1,2.6,16.2,7.6,26.2,12.8l11.7,6.1c3.3,1.7,6.5,3.3,10.1,4.4,11.3,3.6,12.9,9.1,23.8,12.7,3.8,1.2,7.2,3,10.6,5.2l13.7,8.5c6,3.8,12.2,6.7,17.7,11.2,8.4,6.9,14.1,7.9,20.5,13.7,4.6,4.2,14.9,11.7,20.3,14.5,9.7,5.1,11.5,2.5,23.2,9.1,3.2,1.8,6.2,3.7,9.6,5.4,6.4,3.1,13.3,4.5,20.4,5,4.9.3,9.6.1,14.5.1,11.8,0,17.5-3.2,28.9-4.8,3.7-.5,7.2-1.4,10.6-3l14.6-6.6c4.1-1.8,7.9-3.9,11.6-6.4,3.8-2.5,6.8-5.6,9.1-9.6,3.3-5.7,5.9-11.5,7.9-17.8,2.2-7.2,2.3-14,1.1-21.4l-2.5-15.9c-.8-4.8-2.1-9.3-4.5-13.6l-4.4-8.1c-2.5-4.4-5.1-8.5-8.3-12.6l-9.3-11.9c-9.3-11.9-15.7-11.4-26.7-20.6l-12.1-10.2c-3.1-2.6-6.2-5.1-8.8-8.3-3.2-3.8-6.8-6.9-10.8-10-7.3-5.8-14.7-10.9-17.6-19.5-4.6-13.7,23-23.8,32.9-35.4l7.2-8.4,8.1-8.3c4.4-4.5,8.3-9.2,13-13.5,7-6.4,13.3-13.3,18.6-21.2,4.1-6,8.4-11.4,12.9-17.1,3.4-4.4,6.1-9.1,9.2-13.7,2.8-4.2,4.5-8.9,5.1-13.9.3-2.2.7-4.3.8-6.5.2-5.6.5-11,1-16.6.6-6.3-1-12.2-4.1-17.7l.1001-.2998ZM324.4198,437.3197l-16.3,20.2c-5,4.9-10.2,9.3-16.3,12.7l-12.5,7c-5.6,3.2-11.1,6.4-17,9.1-3.3,1.5-6.4,2.9-9.5,4.8-4.9,3-10.1,5.1-15.9,6l-14.6,2.4c-3.5.6-6.7,1.5-10,2.9-6.3,2.7-12.2,5.9-18.4,9-4.1,2.1-7.9,4.2-11.7,6.8-3.2,2.2-6.7,3.8-10.5,4.8-3.8,1.1-7.4,2.3-11.1,3.9-4.6,1.9-9.3,3.3-13.9,5.3l-7.5,3.3c-4.7,2-9.5,3-14.7,2.9-11.4-.1-19.9,2.7-30.2-3.1-3.7-2.1-5.5-6.4-3.5-10.5,3.5-7.1,8.6-13.4,13.7-19.7,2.2-2.7,4.3-5.4,6.8-7.9,11.5-11.3,20.5-19.1,36.6-23.3,2.3-.5,4.3-1.3,6.6-1.7,11-1.8,20.3-9.8,30.8-14.7,7.5-3.4,13.9-7.8,19.8-13.6,3.5-3.4,6-7,7.8-11.6,1.7-4.5,2.6-9,2.7-14,.3-18.8,5-24-8.8-37.9-13.3-13.3-20.1-11.8-31.8-20-2.9-2-5.9-3.5-9-5.2-5.1-2.7-9.9-5.5-15.3-7.6-4.5-1.8-8.7-3.7-12.9-6.3-2.7-1.7-5.6-3-8.7-4.2-3.4-1.3-6.5-2.8-9.7-4.6l-10.5-5.9c-4.1-2.3-14.7-10.5-15.9-16-.6-3.1,1.5-5.9,4.6-6.8,10.3-3,19.3-1.4,29.5.4,11.1,2,16.2,7.4,23.8,10,5.7,1.9,10.8,4.3,15.9,7.5,3.9,2.3,7.7,4.4,11.4,7.1,2.9,2.1,6,3.8,9.5,5.3,4.4,1.7,8.4,3.6,12.5,5.7,11.1,5.8,12.4,3.5,25.7,12,3.6,2.3,7.6,3.5,11.5,5.5,12,6.1,20.1,6.5,32.9,10.2,4.8,1.4,9.1,3.6,13.7,5.8,6.5,3.2,13,5.8,20,7.9,4.2,1.2,7.9,3.1,11.6,5.5l8.5,5.4c6.7,4.3,10.6,11.1,13.2,18.6,3.3,9.2-6.6,19.7-13.1,26.1l.2.5ZM349.1198,252.6198c-3-4.9-5.1-10.1-6.1-15.9l-2.4-14.6c-.5-3.5-1.5-6.7-2.9-9.9-2.8-6.4-5.9-12.3-9-18.5-2-4.1-4.1-7.9-6.7-11.7-2.2-3.2-3.8-6.7-4.9-10.5s-2.3-7.4-3.9-11.1c-1.9-4.6-3.2-9.3-5.2-13.9l-3.3-7.5c-2-4.7-3-9.5-2.9-14.7.2-11.4-2.7-19.9,3.1-30.2,2.1-3.7,6.4-5.5,10.5-3.5,7.2,3.5,13.5,8.6,19.7,13.7,2.8,2.2,5.4,4.3,7.9,6.8,11.3,11.5,19.2,20.5,23.3,36.6.6,2.3,1.3,4.3,1.7,6.6,1.8,11,9.8,20.3,14.7,30.8,3.5,7.5,7.9,13.9,13.6,19.8,3.4,3.5,7,6,11.6,7.8,4.5,1.7,9,2.6,13.9,2.7,18.8.3,24,5,37.9-8.8,13.4-13.3,11.9-20.2,20-31.8,2-2.9,3.6-5.9,5.2-9,2.7-5.1,5.5-9.9,7.6-15.3,1.8-4.5,3.7-8.7,6.3-12.9,1.7-2.7,3-5.6,4.2-8.7,1.2-3.4,2.8-6.5,4.5-9.7l5.9-10.5c2.3-4.1,10.6-14.6,16-15.9,3.1-.6,5.9,1.5,6.7,4.6,3,10.3,1.4,19.3-.4,29.5-2,11.1-7.4,16.2-10,23.8-1.9,5.7-4.3,10.8-7.5,15.9-2.4,3.9-4.4,7.7-7.1,11.4-2.1,2.9-3.8,6-5.2,9.5-1.8,4.4-3.6,8.4-5.8,12.5-5.8,11.1-3.5,12.4-11.9,25.7-2.3,3.6-3.6,7.6-5.5,11.5-6.1,12-6.5,20.1-10.2,32.9-1.4,4.8-3.6,9.1-5.8,13.7-3.2,6.5-5.8,13-7.9,20-1.2,4.2-3.1,7.9-5.5,11.6l-5.4,8.5c-4.3,6.7-11.1,10.6-18.6,13.2-9.3,3.3-19.8-6.6-26.1-13.1l-20.2-16.4c-4.9-5-9.2-10.2-12.7-16.3l-7-12.5c-3.2-5.6-6.4-11.1-9.1-17-1.5-3.3-2.9-6.4-4.8-9.5l-.3.3ZM457.3198,402.7198c-.6,1.6-.1,1.2-1.1,3.3-.2.4-.4.7-.4,1.2,0,.2-.2.5-.3.8,0,.3-.8,2.1-1,2.5l-1.2,2.4-.8,1.6-1.1,1.9c-.4.8-1.6,2.3-2.3,3.5-.1.3-.3.6-.6.9-.6.7-.9,1.3-1.5,2.3l-.4.5c-.3.6-.7,1.1-1.1,1.7l-1,1.6c-.3.5-.7,1-1,1.5l-1.1,2-.4.7h0l-.3.6-1,1.7c0,.2-.2.4-.4.8l-.5,1c0,.2-.7,1.3-.9,1.7-.4.7-.7,1.4-1,2.2,0,.1-.7,1.5-.8,1.6,0,.3-.3.5-.4.7l-.4,1-.4.8c-.2.6-.5,1.2-.7,1.8-2.4,5.2-9,11.8-10.7,13.1-1.9,1.5-3.5-1.5-5.3-2.8-.9-.7-2.7-2.6-4.3-4.2-.2-.4-.6-.7-.8-1.1l-1-.9c-.3-.4-.6-.7-1-1.1l-2.7-2.4c-.4-.3-.7-.7-1.1-1.1l-.4-.5c-.2-.1-.4-.3-.6-.5l-1.5-1.6c-.4-.4-.8-.7-1.1-1.1l-1.5-1.8c-.1-.2-.3-.4-.3-.5l-.6-1-.6-1.2c-.2-.4-.4-.9-.6-1.2l-.7-1.2-.4-.8h0l-1.6-3-1.4-2.9c-.2-.2-.3-.4-.4-.7-.1-.3-.4-.7-.5-1.1l-.5-1c-.1-.3-.3-.7-.5-1.1l-.2-.5c-.1-.4-.3-.8-.5-1.2l-.5-1c-.2-.5-.4-1-.6-1.6-.1-.6-.5-1.1-.7-1.7s-.4-1.3-.7-1.9c-.2-.3-.4-.7-.5-1.2-.3-1.4-.6-1.5-.9-2.5l-.5-1.4c-.1-.3-.3-.6-.3-1s-.2-.7-.4-1l-.4-1.2-.6-2.2-.4-1.5c-.5-1.9-.6-2.9-.5-4.8v-1.4l.2-1c0-.9.9-3.6,1.5-4.9,0-.2.2-.4.2-.5l.6-1.1c.7-1.2.6-.8,1.3-1.5q.7-.8,1.6-1.2l1-.5c.3-.1.8,0,1.1-.1,1.1,0,2.6,0,3.7.2.9.4,1.5.4,2.5.9l1,.4c.3.1.6.2.9.4.1.1.4.2.5.2.8.4,1.4.8,2.1,1.4l1.9,1.4c.3.3.8.6,1.2.9.3.4.6.7,1,1.1l2.2,2.2c.5.5.9,1,1.4,1.5l1,1.3c.6.6,1.1,1.3,1.7,2,.9,1.1.4.7,1.4,1.8,1.1,1.1,2.3,3.4,3.7,3.9.3.2,1,.2,1.4,0l1.2-.8c.4-.3.8-.7,1.1-1.1.6-.9,1.3-1.6,1.9-2.5l1.6-2.3c.2-.3.3-.6.5-.8l1.5-2.1c.2-.3.4-.6.7-.9.5-.6,1.1-1.3,1.6-1.9.7-.9.9-.9,1.7-1.6.5-.5,1.1-1,1.7-1.5,1.1-1,2.3-1.8,3.8-2,1-.7,2.3-.8,3.6-1,1.1-.1,2.2,0,3.3.1,1.2.2,1.8.2,3,.7l.5.3h.4v.1c1.1.5,2.2,1.2,3.1,2.1.6.6,1.4,1.1,1.9,1.9.4.6.5,1.4.7,2.2.3,1,1.3,2.3,1.4,3.2v5.1l-.4001-.5ZM504.8198,625.8197c2.7,6.3,5.9,12.3,9,18.5,2.1,4.1,4.1,7.9,6.8,11.7,2.2,3.2,3.8,6.7,4.8,10.5,1.1,3.8,2.3,7.4,3.9,11.1,1.9,4.6,3.2,9.3,5.3,13.8l3.3,7.5c2,4.6,3,9.5,2.9,14.7-.2,11.4,2.7,19.9-3.1,30.2-2.1,3.7-6.4,5.6-10.5,3.5-7.1-3.5-13.4-8.5-19.7-13.6-2.7-2.2-5.4-4.3-7.9-6.8-11.3-11.5-19.2-20.5-23.3-36.6-.6-2.3-1.3-4.4-1.7-6.7-1.8-11-9.8-20.3-14.7-30.8-3.4-7.4-7.9-13.9-13.6-19.8-3.4-3.5-7-6.1-11.6-7.8-4.5-1.7-9-2.7-13.9-2.7-18.8-.3-24-5-37.9,8.8-13.3,13.3-11.8,20.1-20,31.8-2,2.9-3.5,5.9-5.2,9-2.7,5.1-5.5,9.9-7.6,15.3-1.8,4.6-3.7,8.8-6.3,12.9-1.7,2.7-3,5.6-4.2,8.6-1.3,3.4-2.8,6.6-4.6,9.7l-5.9,10.5c-2.3,4.1-10.6,14.6-16,15.8-3.1.7-5.9-1.5-6.8-4.5-3-10.3-1.4-19.3.4-29.6,2-11.1,7.4-16.2,10-23.7,1.9-5.7,4.4-10.8,7.5-15.9,2.3-3.9,4.4-7.7,7.1-11.4,2.1-2.9,3.8-6,5.2-9.5,1.8-4.4,3.6-8.4,5.8-12.5,5.8-11.1,3.5-12.4,11.9-25.7,2.3-3.6,3.6-7.6,5.5-11.5,6.1-11.9,6.5-20.1,10.2-32.9,1.4-4.9,3.6-9.1,5.8-13.7,3.2-6.6,5.8-13,7.9-20,1.3-4.2,3.2-8,5.5-11.6l5.4-8.5c4.3-6.7,11.2-10.6,18.6-13.3,9.2-3.3,19.7,6.6,26.1,13.1l20.2,16.4c4.9,5,9.3,10.2,12.7,16.2l7,12.5c3.2,5.6,6.4,11,9.1,17,1.5,3.3,2.9,6.4,4.8,9.5,3,4.9,5.1,10.1,6.1,15.9l2.4,14.6c.6,3.5,1.5,6.7,2.9,9.9l.4.1ZM752.6198,313.0198c-3.5,7.2-8.5,13.5-13.6,19.7-2.2,2.7-4.3,5.4-6.8,7.8-11.5,11.3-20.5,19.2-36.6,23.3-2.3.6-4.4,1.4-6.7,1.7-11,1.8-20.3,9.8-30.8,14.7-7.4,3.4-13.9,7.8-19.8,13.6-3.5,3.4-6.1,7-7.8,11.6-1.7,4.5-2.7,9-2.7,14-.3,18.8-5,24,8.8,37.8,13.3,13.4,20.1,11.9,31.8,20,2.9,2,5.9,3.6,9,5.3,5.1,2.7,9.9,5.5,15.3,7.6,4.6,1.7,8.8,3.6,12.9,6.3,2.7,1.7,5.6,3,8.6,4.2,3.4,1.3,6.6,2.8,9.7,4.6l10.5,5.9c4.1,2.3,14.6,10.5,15.8,16,.7,3.1-1.5,5.9-4.5,6.8-10.3,3-19.3,1.4-29.6-.5-11.1-2-16.2-7.4-23.7-10-5.7-1.9-10.8-4.3-15.9-7.5-3.9-2.4-7.7-4.4-11.4-7.1-2.9-2.1-6-3.9-9.5-5.3-4.4-1.7-8.4-3.6-12.5-5.8-11.1-5.7-12.4-3.5-25.7-11.9-3.6-2.3-7.6-3.6-11.5-5.5-11.9-6.1-20.1-6.5-32.9-10.2-4.9-1.4-9.1-3.6-13.7-5.8-6.6-3.2-13-5.8-20-7.9-4.2-1.2-8-3.1-11.6-5.5l-8.5-5.4c-6.7-4.3-10.6-11.1-13.3-18.6-3.3-9.2,6.6-19.7,13.1-26.1l16.4-20.2c5-4.9,10.2-9.2,16.2-12.7l12.5-7c5.6-3.2,11-6.4,17-9.1,3.3-1.5,6.4-2.9,9.5-4.8,4.9-3,10.1-5.1,15.9-6.1l14.6-2.4c3.5-.6,6.7-1.5,9.9-2.9,6.3-2.8,12.3-5.9,18.5-9,4.1-2,7.9-4.1,11.7-6.7,3.2-2.2,6.7-3.8,10.5-4.9s7.4-2.3,11.1-3.8c4.6-2,9.3-3.3,13.8-5.3l7.5-3.3c4.6-2.1,9.5-3,14.7-3,11.4.2,19.9-2.6,30.2,3.1,3.7,2.1,5.6,6.4,3.5,10.5l.1-.2Z" fill="#fff"/>
  </g>
</svg>