<?xml version="1.0" encoding="UTF-8"?>
<svg id="uuid-5a70e9cc-2a5f-447f-a64a-d73cfabf9d02" data-name="Ebene 2" xmlns="http://www.w3.org/2000/svg" viewBox="0 0 929.5618 403.2695">
  <g id="uuid-10bb4fd4-1531-4f7c-b7fd-23fb524bb646" data-name="Ebene 1">
    <g>
      <path d="M679.2618,89.0808c-.4-2.4-.9-4.5-1.9-6.6l-4.1-9.1c-1.1-2.5-2.4-4.9-3.9-7.2s-3.5-4.2-5.9-5.6c-3.5-2.1-7.1-3.7-11-4.9-4.5-1.4-8.7-1.4-13.3-.7l-9.8,1.6c-3,.5-5.8,1.3-8.4,2.8l-5,2.8c-2.8,1.5-5.3,3.1-7.8,5.1l-7.4,5.8c-7.3,5.8-7,9.7-12.7,16.5l-6.3,7.5c-1.6,2-3.2,3.9-5.1,5.5-2.4,2-4.3,4.3-6.2,6.7-3.6,4.6-6.8,9.1-12.1,10.9-8.5,2.8-14.8-14.3-21.9-20.4l-5.2-4.5-5.1-5c-2.8-2.8-5.6-5.2-8.3-8.1-4-4.3-8.3-8.2-13.2-11.5-3.7-2.5-7-5.2-10.6-7.9-2.8-2.1-5.6-3.8-8.5-5.7-2.6-1.8-5.5-2.8-8.6-3.2-1.4-.2-2.6-.5-4-.5-3.5-.2-6.8-.4-10.3-.7-3.9-.4-7.5.6-10.9,2.5-3.2,1.7-6.3,3.6-8.4,6.6-2.5,3.5-4.7,7.2-6.1,11.3l-4.5,13c-1.1,3.3-1.6,6.7-2.2,10.2-.7,3.7-.1,7.2.6,10.8.8,3.9,1.5,7.7,2.7,11.5.8,2.6,1.3,5.2,2,7.9,3.7,14.8,5.8,11.9,9.1,20.7l3.4,9c1.4,3.7,3,7.1,5.1,10.4,1.9,2.9,3.6,5.8,5.8,8.6,2.3,2.9,3.8,6.1,5.2,9.5,1,2.4,2.5,4.5,3.7,6.8l6,11.4c1.3,2.4,2.5,4.8,3.4,7.4,1.1,2.9,2.2,5.7,3.6,8.5,1.2,2.4,2.1,4.8,2.9,7.4l2.4,8.3c2.3,7.7,5.2,11,10.5,16.8,2,2.2,4.2,4,7,5.2l5.9,2.4c2.3.9,4.4,1.9,6.6,3.1,2.4,1.4,4.7,2.5,7.2,3.6,2.1.9,4.1,2.1,5.8,3.7l7.2,6.5c2.8,2.4,4.7,5.3,5.6,8.9l1.5,6.2c1.2,4.9-.7,9.4-2.7,13.7l-4.1,8.8c-1.8,4-3.6,8-6.1,11.6l-9.5,13.9c-2.4,3.5-5.6,12.4-5.6,17.1.1,8.4,5.8,18.2,14.2,21.3l9.1,3.3c4.3,1.6,8.2.4,11.8-2.2,2.5-1.8,4.1-4.4,4.7-7.5l2.1-10.4c.8-3.7,1.9-7.1,3.4-10.6,1.6-3.5,2.9-6.9,4.2-10.5.6-1.8,1.5-3.3,2.6-4.8,2-2.7,4.3-5.1,6.9-7.3,2-1.8,3.7-3.7,5.5-5.7,3.4-3.9,8-5.5,10.6-9.8l4.3-7.1c4-6.7,3-10.1,5-17.8,2.1-8.3,1.2-12.8,5.2-21.5l.2.4999,5.6-12.3c1.4-3.1,3.1-5.7,3.9-9,1.6-6.9,4.7-10,7.9-16.2l3.8-7.2c1-2.1,2-4.1,2.7-6.3,2.3-7,5.7-8,7.9-14.8.8-2.3,1.9-4.4,3.2-6.5l5.3-8.5c2.3-3.8,4.1-7.6,6.9-11,4.3-5.2,4.9-8.8,8.5-12.7,2.6-2.8,7.2-9.2,9-12.5,3.1-6,1.5-7.1,5.6-14.4,1.1-2,2.3-3.8,3.3-5.9,1.9-4,2.8-8.2,3.1-12.6.1-3.1,0-6,0-9,0-7.3-2-10.8-3-17.9ZM634.5619,130.8808c-1.3,6.8-4.6,10-6.2,14.7-1.2,3.5-2.7,6.6-4.6,9.8-1.5,2.4-2.7,4.7-4.4,7-1.4,1.8-2.4,3.7-3.3,5.9l.1.3c-1.1,2.7-2.3,5.2-3.6,7.7-3.6,6.9-2.2,7.7-7.4,15.9-1.4,2.2-2.2,4.7-3.4,7.1-3.7,7.4-4,12.5-6.3,20.4-.9,3-2.2,5.7-3.6,8.5-2,4-3.6,8-4.9,12.3-.8,2.6-2,4.9-3.4,7.2l-3.4,5.3c-2.7,4.2-6.9,6.5-11.5,8.2-5.7,2.1-12.2-4.1-16.1-8.1l-12.5-10.1c-3.1-3.1-5.8-6.3-7.9-10.1l-4.4-7.7c-1.9-3.5-3.9-6.8-5.6-10.5-1-2.1-1.8-4-3-5.9-1.9-3-3.2-6.2-3.8-9.8l-1.5-9c-.3-2.2-.9-4.2-1.8-6.2-1.7-3.9-3.7-7.6-5.6-11.4-1.3-2.5-2.6-4.9-4.2-7.2-1.4-2-2.3-4.2-3-6.5-.7-2.4-1.4-4.6-2.4-6.9-1.2-2.9-2.1-5.8-3.3-8.6l-2-4.6c-1.2-2.9-1.8-5.9-1.8-9.1.1-7.1-1.7-12.3,1.9-18.7,1.3-2.3,4-3.4,6.5-2.2,4.5,2.2,8.3,5.2,12.2,8.4,1.7,1.4,3.4,2.6,4.9,4.2,7.1,7.1,11.9,12.7,14.5,22.7.4,1.4.9,2.7,1.1,4.1,1.1,6.8,6.1,12.6,9.1,19.1,2.1,4.6,4.9,8.6,8.4,12.2,2.1,2.1,4.4,3.7,7.2,4.8,2.8,1.1,5.5,1.7,8.6,1.7,11.6.2,14.8,3,23.4-5.5,8.3-8.2,7.4-12.5,12.4-19.7,1.2-1.8,2.2-3.7,3.2-5.6,1.7-3.2,3.4-6.2,4.7-9.5,1.1-2.8,2.3-5.5,3.9-8,1.1-1.7,1.9-3.5,2.6-5.4.8-2.1,1.7-4,2.8-6l3.6-6.5c1.5-2.6,6.5-9.1,9.9-9.8,1.9-.5,3.6.9,4.2,2.8,1.8,6.4.9,12-.3,18.3Z" fill="#141514"/>
      <path d="M436.762,186.7809c-2.2-6.8-5-9.4-8-15.6-1-2-2.1-3.8-3.6-5.5l-6.4-7.1c-1.8-2-3.6-3.8-5.7-5.5-2.1-1.8-4.4-2.9-7.1-3.5-3.8-.9-7.6-1.3-11.5-1.3-4.5.1-8.4,1.3-12.4,3.3l-8.6,4.3c-2.6,1.3-4.9,2.9-6.9,5l-3.8,4c-2.1,2.2-4,4.5-5.7,7l-5.1,7.5c-5.1,7.4-3.6,11-6.9,18.9l-3.6,8.7c-.9,2.2-1.8,4.4-3.1,6.5-1.6,2.5-2.7,5.1-3.8,7.9-2,5.2-3.5,10.3-7.9,13.5-7,5.2-17.8-8.8-26.1-12.3l-6.1-2.6-6.2-3.1c-3.4-1.7-6.7-3.1-10-5-5-2.9-10-5.2-15.5-6.8-4.2-1.2-8-2.7-12.1-4.2-3.2-1.2-6.3-1.9-9.5-2.8-2.9-.8-5.8-.9-8.8-.4-1.3.2-2.5.4-3.8.7-3.3.9-6.4,1.7-9.7,2.4-3.7.8-6.7,2.8-9.3,5.5-2.4,2.5-4.7,5.1-5.8,8.5-1.2,3.9-2.3,8-2.3,12.1l-.3,13.3c-.1,3.4.4,6.8.9,10.1.4,3.5,2,6.6,3.7,9.7,1.9,3.4,3.7,6.6,5.9,9.8,1.6,2.2,2.8,4.4,4.2,6.7,7.7,12.4,8.8,9.2,14.4,16.3l5.8,7.3c2.4,3,4.8,5.6,7.7,8.1,2.6,2.2,5,4.4,7.8,6.3,2.9,2,5.2,4.5,7.5,7.2,1.6,2,3.6,3.4,5.4,5.2l8.8,8.8c1.9,1.9,3.7,3.8,5.3,5.9,1.9,2.4,3.7,4.6,5.8,6.8,1.9,1.9,3.4,3.8,4.9,6l4.7,6.9c4.4,6.4,8.1,8.6,14.6,12.4,2.5,1.4,4.9,5.2,7.8,5.4l7,3.9c2.4.2,4.1,1.9,6.4,2.4,2.5.5,3.6,1,6.2,1.3,2.2.2,4.3.8,6.4,1.7l8.6,3.9c3.3,1.4,7.4,2,12.4,2.9l12.5,3.9v.1001c6.3001,2,8.0001,5.6,15.0001,3.4s12.2-15.3,12.2-15.3c1.7-7.3,3.8-10.1,6-16.4,2.8-8.4,2.3-6.5,3.4-15.7l1.6-12.9c.4-3.2,1.2-6.2,1-9.4-.6-6.8,1.3-10.6,2.5-17.2l1.4-7.7c.4-2.2.7-4.4.7-6.6,0-7.1,2.9-9,2.9-15.9,0-2.4.4-4.6,1-6.9l2.4-9.3c1.1-4.1,1.6-8.2,3.2-12.1,2.4-5.9999,2-9.4,4.1-14.1,1.6-3.4,4-10.6,4.6-14.2,1.2-6.5-.6-7,1-14.9.4-2.1,1-4.2,1.3-6.4.6-4.2.1-8.4-.9-12.5-.7-2.9-1.6-5.5-2.5-8.3ZM398.6619,238.1808c-.1,3.6-.5,6.9-1.4,10.4-.7,2.7-1.1,5.2-2,7.8-.7,2.1-1.1,4.1-1.3,6.4l.1-.1c-.2,2.9-.5,5.5-1,8.2-1.2,7.4.3,7.7-2.1,16.8-.7,2.5-.7,5-1.1,7.5-1.3,7.9-.1,12.6.1,20.6.1,3-.4,5.8-.8,8.8-.7,4.3-.9,8.5-.9,12.8.1,2.6-.3,5.1-1,7.6l-1.6,5.8c-1.3,4.6-4.5,8-8.2,10.9-4.6,3.5-12.4-.2-17.2-2.8l-14.4-5.6c-3.7-2-7.1-4.2-10.2-7l-6.3-5.8c-2.9-2.6-5.7-5.1-8.3-8-1.5-1.6-2.9-3.1-4.5-4.5-2.6-2.2-4.7-4.8-6.3-7.9l-4-7.9c-1-1.9-2.1-3.5-3.5-5.1-2.8-3.1-5.6-5.9-8.5-8.9-2-1.9-3.8-3.7-6-5.4-1.9-1.5-3.4-3.1-4.7-5.1-1.3-2-2.6-3.8-4.2-5.6-1.9-2.2-3.5-4.7-5.5-6.9l-3.2-3.7c-2-2.3-3.4-4.8-4.3-7.8-2-6.6-5.1-10.9-3.7-17.8.5-2.5,2.6-4.3,5.3-3.9,4.8.7,9.2,2.4,13.7,4.2,2,.7,3.8,1.4,5.7,2.4,8.5,4.5,14.6,8.2,19.9,16.6.8,1.2,1.6,2.3,2.2,3.5,3,5.9,9.2,9.8,13.9,14.9,3.3,3.6,7,6.5,11.3,8.8,2.5,1.4,5.1,2.2,8,2.4,2.9.2,5.6-.1,8.4-.9,10.8-3.2,14.6-1.5,20-11.9,5.2-10,3.1-13.6,5.6-21.7.7-2,1-4,1.4-6.1.7-3.4,1.4-6.7,1.6-10.1.2-2.9.6-5.7,1.3-8.5.5-1.9.7-3.7.8-5.7.1-2.2.4-4.3.8-6.4l1.5-7c.5-2.8,3.3-10.2,6.2-11.9,1.7-.9,3.6-.2,4.7,1.4,3.6,5.3,4.3,10.7,5.1,16.9.8,6.6-1.4,10.5-1.4,15.3Z" fill="#141514"/>
      <path d="M928.8618,95.1808c-.4-2.7-1.4-5.1-3-7.3-2.3-3.2-4.9-6-7.8-8.6-3.3-3-7.1-4.7-11.4-5.8l-9.3-2.5c-2.8-.8-5.6-1.2-8.5-.9l-5.5.5c-3.1.3-5.9.7-8.9,1.5l-8.8,2.2c-8.7,2.2-10,5.8-17.7,9.6l-8.5,4.1c-2.2,1.1-4.4,2.1-6.7,2.8-2.9.9-5.5,2.1-8.1,3.5-5,2.6-9.5,5.4-14.9,4.9-8.6-.8-7.4-18.3-11.3-26.5l-2.9-6-2.6-6.4c-1.4-3.5-3-6.8-4.2-10.4-1.8-5.4-4.1-10.5-7.1-15.3-2.3-3.7-4.1-7.4-6.2-11.2-1.6-3-3.4-5.6-5.2-8.4-1.6-2.6-3.7-4.6-6.3-6.2-1.1-.7-2.1-1.4-3.3-2-3-1.5-5.9-2.9-8.8-4.6-3.3-1.9-6.9-2.4-10.6-2.1-3.5.3-6.9.8-10,2.6-3.6,2.2-7,4.6-9.8,7.6l-9,9.7c-2.3,2.4-4.1,5.3-6,8.1-2,3-2.9,6.3-3.7,9.8-.9,3.8-1.6,7.4-2.1,11.2-.3,2.7-.8,5.2-1.3,7.8-2.4,14.4.5,12.7,0,21.8l-.5,9.3c-.2,3.8-.2,7.4.4,11.2.5,3.4.9,6.6,1.7,9.9.9,3.5,1,6.8.9,10.4-.1,2.6.4,5,.6,7.5l.8,12.4c.1,2.7.2,5.2,0,7.9-.2,3-.3,5.9-.2,8.9.2,2.6,0,5.1-.3,7.7l-1.1,8.3c-1,7.6.3,11.7,2.7,18.9.9,2.7.2,7.1,2.2,9.2l2.7,7.6c1.6,1.7,1.8,4.1,3.2,6,1.6,2.1,2,3.2,3.8,5.1,1.6,1.7,2.8,3.5,3.7,5.6l3.8,8.6c1.4,3.3,4.2,6.4,7.3,10.4l6.8,11.2h-.1002c3.4,5.6,2.3,9.4999,9,12.4999s19.3-3.3,19.3-3.3c6.1-4.4,9.6-5,15.4-8.3,7.7-4.4,6.1-3.4,13-9.5l9.7-8.6c2.4-2.2,5-3.8,7-6.4,4.1-5.4,8-7,13.3-11.2l6.1-4.9c1.8-1.4,3.4-2.8,4.9-4.5,4.7-5.3,8.1-4.9,12.7-10,1.6-1.8,3.4-3.2,5.4-4.5l8-5.4c3.5-2.3,6.6-5,10.4-6.9,5.8-2.9,7.7-5.8,12.4-7.9,3.4-1.6,9.9-5.3,12.8-7.6,5.1-4.1,4.2-5.7,10.6-10.5,1.8-1.3,3.6-2.5,5.3-3.9,3.2-2.7,5.6-6.2,7.6-9.9,1.4-2.6,2.4-5.2,3.6-7.9,2.9-6.4,2.5-10.3,4.4-16.9.6-2.2.9-4.2.9-6.5v-9.6c-.1-2.7-.3-5.3-.7-7.9ZM880.2619,122.9808c-.8,6.3-3.9,10.9-7.4,16-3.8,5.6-8,7.1-11.2,10.6-2.4,2.6-5,4.8-7.9,6.8-2.2,1.5-4.2,3.1-6.6,4.5-1.9,1.1-3.6,2.3-5.2,3.9l-.1-.2999c-2.1,2-4,3.7-6.2,5.4-5.8,4.6-4.9,5.9-12.7,11.1-2.1,1.4-3.8,3.3-5.8,4.9-6.2,5.1-8.4,9.4-13.5,15.5-2,2.3-4.2,4.2-6.5,6.1-3.3,2.8-6.3,5.7-9.1,9-1.7,2-3.6,3.6-5.8,5l-5,3.3c-3.9,2.7-8.6,3-13.3,2.7-5.9-.4-9.2-8.4-11.1-13.5l-7.1-13.8c-1.5-3.9-2.6-7.8-3-11.9l-.8-8.5c-.4-3.9-.9-7.6-.9-11.5,0-2.1,0-4.2-.3-6.3-.5-3.4-.4-6.7.5-10.1l2.2-8.5c.5-2,.8-4,.8-6.1.1-4.1-.2-8.1-.4-12.2-.2-2.7-.4-5.3-.9-8-.4-2.3-.4-4.6-.1-6.9.4-2.4.6-4.6.6-7,.1-3,.5-5.8.5-8.8v-4.9c0-3,.6-5.9,1.9-8.7,2.8-6.2,3.3-11.5,9-15.7,2.1-1.5,4.9-1.5,6.6.6,3,3.7,5.2,7.9,7.4,12.2,1,1.9,2,3.6,2.7,5.6,3.4,9,5.5,15.8,3.9,25.6-.3,1.4-.3,2.7-.7,4.1-1.7,6.4.4,13.5.5,20.4.1,4.9.9,9.5,2.6,14.1,1,2.7,2.3,5,4.4,7.1,2,2.1,4.2,3.7,6.9,4.9,10.2,4.8,11.9,8.6,22.8,4.4,10.5-4,11.3-8.1,18.6-12.5,1.8-1.1,3.3-2.4,5-3.7,2.7-2.1,5.4-4.1,7.9-6.5,2.1-2,4.2-3.9,6.6-5.5,1.6-1.1,3-2.3,4.4-3.7,1.5-1.5,3.1-2.9,4.8-4.2l5.8-4.3c2.3-1.7,9.4-5.5,12.6-4.8,1.9.3,2.8,2.2,2.6,4.1Z" fill="#141514"/>
      <path d="M212.7619,172.5807c4.4-4.8,5.2-8.3,8.9-11.9,2.7-2.7,7.5-8.6,9.4-11.8,3.4-5.7,1.9-6.8,6.2-13.7,1.2-1.9,2.4-3.6,3.5-5.6,2.1-3.7,3.1-7.9,3.6-12.1.3-3,.4-5.8.5-8.7h.3c.4-7.0999-1.4-10.5999-2-17.5999-.2-2.3-.6-4.3-1.5-6.5l-3.5-9c-1-2.5-2.1-4.9-3.5-7.2-1.4-2.4-3.2-4.3-5.5-5.8-3.3-2.2-6.8-3.9-10.5-5.3-4.3-1.6-8.4-1.8-12.9-1.3l-9.7,1.1c-2.9.3-5.7,1-8.3,2.3l-5,2.4c-2.8,1.3-5.3,2.8-7.8,4.6l-7.5,5.3c-7.5,5.2-7.3,9.1-13.2,15.5l-6.5,7c-1.7,1.8-3.2999,3.6-5.2999,5.1-2.4001,1.9-4.4001,3.9-6.4001,6.2-3.7,4.2-7,8.5-12.2999,10-8.4,2.4-13.7001-14.6-20.2999-20.9l-4.8-4.6-4.8-5.1c-2.6-2.8-5.3-5.3-7.7-8.3-3.7-4.4-7.6001-8.4-12.2-11.9-3.5-2.7-6.6001-5.4-9.9001-8.2-2.5999-2.2-5.2999-4-8-6-2.3999-1.8-5.2-3-8.2-3.5-1.3-.2-2.6-.5-3.9-.6-3.4-.3-6.6-.7-10-1.2-3.7999-.5-7.4.3-10.7999,1.9-3.2001,1.5-6.3,3.2-8.5,6-2.5,3.3-4.9,6.8-6.5,10.7l-5,12.4c-1.3,3.2-1.9,6.5-2.7001,9.9-.7999,3.6-.4,7,0,10.5.5,3.9,1.1,7.5,2.1,11.3.7001,2.6,1.1001,5.2,1.6001,7.8,2.7999,14.5,5,11.8,7.7999,20.5l2.9,9c1.2,3.7,2.5,7,4.4,10.4,1.7001,3,3.2001,5.8,5.2,8.7,2.1,3,3.4,6.1,4.6,9.5.8,2.5,2.2001,4.5,3.3,6.8l5.2,11.4c1.2001,2.5,2.1001,4.8,2.9001,7.4.8999,2.9,1.7999,5.7,3,8.4,1.0999,2.4,1.7999,4.8,2.5,7.4l2,8.2c1.7999,7.5,4.5999,10.9,9.3999,16.9,1.9,2.3,2.8,6.6,5.4,7.9l5.2999,6.2c2.2001,1,3.2001,3.2,5.2001,4.5,2.2001,1.4,3.1,2.2,5.4,3.5,2,1,3.8999,2.3,5.5,3.9l6.7,6.7.2.2.1001.1c1,.8,2,1.5,3,2.3l.2.1c7.3,6.1,12.7,12.8,18.1,20.3,6.3,8.8,6.8,25.2,17.4,28.8,4.3,1.4,15.6,4.1,21.2,2.4,5.9-1.8,7.6-6,5.5-15-2.8-12.3-12.0001-22.9-9.9-29.5,1.9-5.8,10-9.5,11.3-15.2,1.2-1.8,1.9-3.3,4.3-8l6-11.7c1.5-2.9,3.4-5.4,4.3-8.5,1.9-6.6,5.1-9.5,8.5-15.4l4-6.9c1.1-1.9,2.2-3.8,3-6,2.5-6.7,5.9-7.5,8.4-14,.9-2.3,2-4.2,3.4-6.2l5.6-8c2.5-3.5,4.4-7.2,7.3-10.3ZM197.5619,130.0807c-1.6,6.6-4.9,9.5-6.7,14-1.3,3.4-3,6.3-5,9.3-1.5,2.3-2.9,4.5-4.6,6.6-1.4,1.7-2.5,3.5-3.5,5.5-1.2,2.6-2.5,5-3.9,7.4-3.8,6.5-2.5,7.4-8,15.1-1.5,2.1-2.4,4.5-3.7,6.8-4,7-4.5,11.9-7.2,19.5-1,2.9-2.4,5.4-3.9,8.1-2.1,3.8-3.9,7.6-5.4,11.7-.9,2.5-2.1001,4.7-3.7,6.8l-3.5,5c-2.8,3.9-7,6-11.6001,7.4-5.7,1.7-11.7-4.6-15.3-8.7l-11.5999-10.4c-2.8-3.2-5.3-6.4-7.2001-10.2l-3.9-7.7c-1.7-3.5-3.5-6.9-5-10.5-.8-2-1.6-4-2.6-5.9-1.7001-3-2.7999-6.2-3.2001-9.8l-1-8.9c-.2-2.1-.7-4.1-1.5-6.1-1.5-3.9-3.2-7.5-4.8999-11.4-1.1001-2.5-2.3-4.9-3.7-7.2-1.2001-2-2.1001-4.2-2.6001-6.5-.5-2.4-1.2-4.6-2-6.8-1-2.8-1.7-5.7-2.8-8.5l-1.7999-4.6c-1.1-2.9-1.5-5.8-1.2999-8.9.3999-6.9-1-12.1,2.7999-18.1,1.4-2.1,4-3.1,6.4-1.8,4.2,2.3,7.8,5.5,11.3999,8.8,1.6001,1.5,3.1001,2.8,4.5,4.3,6.5,7.3,10.9001,12.9,13,22.8.3,1.4.7001,2.6.9001,4.1.7999,6.7,5.2999,12.5,7.8999,19,1.9,4.6,4.3,8.6,7.6001,12.3,1.8999,2.2,4,3.9,6.7,5.1,2.7,1.2,5.3,1.9,8.3,2.1,11.2999.8,14.2999,3.7,22.9999-4.1,8.4-7.6,7.8-11.8,13-18.6,1.3-1.7,2.3-3.4,3.4-5.3,1.8-3,3.6-5.8,5.1-9,1.2-2.7,2.5-5.2,4.2-7.6,1.1-1.6,2-3.3,2.8-5.1.9-2,1.9-3.9,3.1-5.7l3.9-6.1c1.5-2.4,6.8-8.5,10.1-9.1,1.9-.3,3.5,1.1,3.9,3,1.5,6.3.3,11.7-1.2,17.8l.3.0999Z" fill="#141514"/>
    </g>
  </g>
</svg>