<?xml version="1.0" encoding="UTF-8"?>
<svg id="uuid-088ff4f8-b82e-478d-9161-fc6229960119" data-name="Ebene 2" xmlns="http://www.w3.org/2000/svg" viewBox="0 0 711.1583 928.6491">
  <g id="uuid-a20c0eee-a905-4b3a-a753-2cd90c36c2e3" data-name="Ebene 1">
    <path d="M494.3833,601.6267c-11.2,24.6-8.7,37.2-14.7,60.7-5.6,21.8-2.8,31.4-14.1,50.2l-12.1,20.2c-7.3,12.2-20.2,16.6-29.9,27.7-5,5.7-9.9,11-15.6,16-7.2,6.3-13.7,13-19.5,20.6-3.2,4.1-5.5,8.5-7.3,13.5-3.7,10.1-7.4,19.7-11.7,29.5-4.3,9.9-7.5,19.5-9.6,30l-6,29.2c-1.8,8.6-6.2,16-13.1,21.2-10.1,7.5-21,10.6-33.2,6.2l-25.8-9.3c-23.8-8.6-39.7-36.3-40.2-60.1-.2-13.4,9-38.4,15.7-48.3l26.8-39.3c7-10.3,12-21.4,17.3-32.6l11.6-24.9c5.7-12.2,11-24.8,7.6-38.8l-4.3-17.6c-2.4-10.1-8-18.3-15.7-25.2l-20.4-18.5c-4.9-4.4-10.3-7.8-16.4-10.5-7-3.1-13.6-6.3-20.3-10.1-6.1-3.4-12.2-6.1-18.7-8.7l-16.8-6.9c-7.9-3.3-14.1-8.4-19.8-14.7-14.9-16.4-23.3-25.8-29.6-47.4l-6.9-23.4c-2.2-7.4-4.8-14.1-8.2-21-3.9-7.9-7.1-15.7-10.1-23.9-2.6-7.4-5.9-14-9.5-21l-16.9-32.3c-3.5-6.6-7.7-12.3-10.5-19.3-3.9-9.7-8.3-18.5-14.6-26.8-6.1-7.9-11-16-16.3-24.4-6-9.4-10.4-19-14.3-29.4l-9.7-25.5c-9.4-24.8-15.3-16.8-25.6-58.3-1.9-7.6-3.4-14.9-5.7-22.3-3.3-10.8-5.5-21.3-7.7-32.5-2-10.2-3.6-20.1-1.8-30.5,1.7-9.7,3.1-19.4,6.3-28.8l12.6-36.7c4-11.5,10.2-21.9,17.1-31.8,6-8.5,14.7-13.8,23.7-18.7C70.0833,2.1267,80.2833-.8733,91.3833.2267c9.8,1,19.2,1.5,29.1,1.9,3.8.1,7.5.9,11.3,1.4,8.7,1.1,16.9,4.1,24.3,9,8.1,5.4,16.2,10.2,23.9,16.1,10,7.7,19.4,15.3,29.9,22.4,13.8,9.4,25.9,20.3,37.1,32.6,7.5,8.2,15.6,15,23.5,22.7l14.5,14.2,14.7,12.6c20.1,17.2,37.8,65.5,61.8,57.5,15-5.1,23.9-17.9,34-30.7,5.4-6.8,10.8-13.1,17.5-18.8,5.4-4.6,9.8-9.9,14.4-15.4l17.7-21.1c16.1-19.2,15.2-30.3,36-46.6l20.8-16.3c7-5.5,14.2-10.1,22-14.5l14.1-7.8c7.5-4.1,15.3-6.4,23.8-7.8l27.7-4.5c12.9-2.1,24.9-2,37.5,1.9,10.9,3.4,21.2,8,31.1,13.8,6.9,4,12.4,9.3,16.8,15.9,4.3,6.5,7.9,13.2,11.1,20.3l11.5,25.5c2.7,6,4.3,12,5.2,18.5,2.8,20,8.4,29.8,8.4,50.5,0,8.6.3,16.7-.3,25.3-.8,12.3-3.3,24.4-8.7,35.5-2.9,5.9-6.3,11.1-9.4,16.7-11.5,20.5-7,23.6-15.9,40.6-4.9,9.4-18,27.3-25.3,35.4-10,11.1-11.8,21.1-23.9,35.7-7.9,9.6-13,20.4-19.6,30.9l-15,23.9c-3.7,5.9-6.8,11.8-9,18.5-6.2,19.2-15.9,21.9-22.1,41.7-2,6.2-4.7,11.9-7.8,17.7l-10.6,20.4c-9.1,17.4-17.8,26.3-22.4,45.8-2.2,9.2-7.2,16.8-11.1,25.3l-15.8,34.7h.2ZM524.3833,327.8267c2.5-6.1,5.4-11.5,9.2-16.6,4.7-6.4,8.3-13.1,12.4-19.9,5.5-8.9,9.7-17.8,13.1-27.7,4.5-13.2,13.9-22.1,17.4-41.5,3.3-17.9,6-33.7.8-51.6-1.6-5.3-6.4-9.2-11.8-8-9.5,2.1-23.8,20.4-27.9,27.7l-10.3,18.3c-3.1,5.5-5.7,11-8,17-2,5.4-4.3,10.3-7.4,15.1-4.6,7.2-7.9,14.5-11,22.5-3.7,9.4-8.6,17.8-13.3,26.7-2.9,5.5-5.6,10.7-9.2,15.8-14.2,20.4-11.6,32.3-34.8,55.6-24.2,24.1-33.3,16-66.1,15.4-8.6-.2-16.4-1.8-24.3-4.8-8-3.1-14.3-7.6-20.2-13.7-10-10.3-17.7-21.5-23.7-34.5-8.5-18.4-22.5-34.7-25.6-53.8-.7-4-2-7.6-3-11.6-7.3-28.2-21-43.9-40.8-63.9-4.3-4.4-8.9-7.9-13.7-11.9-10.9-8.9-21.8-17.6-34.3-23.8-7.1-3.5-14.7-.3-18.3,6.2-10.1,18-5.1,32.8-5.4,52.8-.1,9,1.6,17.5,5.2,25.6l5.8,13.1c3.5,8,5.8,16.1,9.2,24.2,2.7,6.4,4.9,12.7,6.8,19.4,1.9,6.6,4.6,12.7,8.5,18.3,4.5,6.6,8.2,13.2,11.8,20.4,5.4,10.8,10.9,21.1,15.7,32.2,2.5,5.7,4.1,11.3,5.1,17.4l4.3,25.5c1.7,10.1,5.3,19.2,10.6,27.8,3.3,5.4,5.8,10.8,8.4,16.6,4.8,10.3,10.4,19.8,15.9,29.6l12.3,21.8c6,10.6,13.6,19.6,22.2,28.4l35.2,28.5c11.1,11.4,29.4,28.7,45.6,22.9,13-4.7,24.9-11.3,32.4-23.2l9.5-14.9c4.1-6.4,7.4-12.9,9.6-20.2,3.6-12.2,8.2-23.4,13.8-34.8,3.9-7.9,7.7-15.4,10.2-23.9,6.5-22.3,7.2-36.5,17.9-57.4,3.4-6.7,5.6-13.7,9.7-20.1,14.7-23.2,10.7-25.4,20.8-44.8,3.7-7.1,7-14.1,10.1-21.8l-.4-.4Z" fill="#141514"/>
  </g>
</svg>